<svg width="1012" height="29" viewBox="0 0 1012 29" fill="none" xmlns="http://www.w3.org/2000/svg">
<line y1="-0.8" x2="40.6191" y2="-0.8" transform="matrix(-0.755057 0.65566 -0.755057 -0.65566 60 1)" stroke="#E93209" stroke-width="1.6"/>
<line y1="-0.8" x2="39.2651" y2="-0.8" transform="matrix(0.755057 0.65566 -0.755057 0.65566 0 2.25537)" stroke="#E93209" stroke-width="1.6"/>
<line y1="-0.8" x2="40.6191" y2="-0.8" transform="matrix(0.755057 0.65566 0.755057 -0.65566 120 1)" stroke="#E93209" stroke-width="1.6"/>
<line y1="-0.8" x2="39.2651" y2="-0.8" transform="matrix(-0.755057 0.65566 0.755057 0.65566 180 2.25537)" stroke="#E93209" stroke-width="1.6"/>
<line y1="-0.8" x2="40.6191" y2="-0.8" transform="matrix(-0.755057 -0.65566 -0.755057 0.65566 90 28)" stroke="#E93209" stroke-width="1.6"/>
<line y1="-0.8" x2="40.6191" y2="-0.8" transform="matrix(-0.755057 0.65566 -0.755057 -0.65566 238 1)" stroke="#E93209" stroke-width="1.6"/>
<line y1="-0.8" x2="39.2651" y2="-0.8" transform="matrix(0.755057 0.65566 -0.755057 0.65566 178 2.25537)" stroke="#E93209" stroke-width="1.6"/>
<line y1="-0.8" x2="40.6191" y2="-0.8" transform="matrix(-0.755057 -0.65566 -0.755057 0.65566 268 28)" stroke="#E93209" stroke-width="1.6"/>
<line y1="-0.8" x2="40.6191" y2="-0.8" transform="matrix(-0.755057 0.65566 -0.755057 -0.65566 416 1)" stroke="#E93209" stroke-width="1.6"/>
<line y1="-0.8" x2="39.2651" y2="-0.8" transform="matrix(0.755057 0.65566 -0.755057 0.65566 356 2.25537)" stroke="#E93209" stroke-width="1.6"/>
<line y1="-0.8" x2="40.6191" y2="-0.8" transform="matrix(-0.755057 -0.65566 -0.755057 0.65566 446 28)" stroke="#E93209" stroke-width="1.6"/>
<line y1="-0.8" x2="40.6191" y2="-0.8" transform="matrix(-0.755057 0.65566 -0.755057 -0.65566 595 1)" stroke="#E93209" stroke-width="1.6"/>
<line y1="-0.8" x2="39.2651" y2="-0.8" transform="matrix(0.755057 0.65566 -0.755057 0.65566 535 2.25537)" stroke="#E93209" stroke-width="1.6"/>
<line y1="-0.8" x2="40.6191" y2="-0.8" transform="matrix(-0.755057 -0.65566 -0.755057 0.65566 625 28)" stroke="#E93209" stroke-width="1.6"/>
<line y1="-0.8" x2="40.6191" y2="-0.8" transform="matrix(-0.755057 0.65566 -0.755057 -0.65566 773 1)" stroke="#E93209" stroke-width="1.6"/>
<line y1="-0.8" x2="39.2651" y2="-0.8" transform="matrix(0.755057 0.65566 -0.755057 0.65566 713 2.25537)" stroke="#E93209" stroke-width="1.6"/>
<line y1="-0.8" x2="40.6191" y2="-0.8" transform="matrix(-0.755057 -0.65566 -0.755057 0.65566 803 28)" stroke="#E93209" stroke-width="1.6"/>
<line y1="-0.8" x2="40.6191" y2="-0.8" transform="matrix(-0.755057 0.65566 -0.755057 -0.65566 951 1)" stroke="#E93209" stroke-width="1.6"/>
<line y1="-0.8" x2="39.2651" y2="-0.8" transform="matrix(0.755057 0.65566 -0.755057 0.65566 891 2.25537)" stroke="#E93209" stroke-width="1.6"/>
<line y1="-0.8" x2="40.6191" y2="-0.8" transform="matrix(-0.755057 -0.65566 -0.755057 0.65566 981 28)" stroke="#E93209" stroke-width="1.6"/>
<line y1="-0.8" x2="40.6191" y2="-0.8" transform="matrix(0.755057 -0.65566 0.755057 0.65566 90 28)" stroke="#E93209" stroke-width="1.6"/>
<line y1="-0.8" x2="40.6191" y2="-0.8" transform="matrix(0.755057 0.65566 0.755057 -0.65566 298 1)" stroke="#E93209" stroke-width="1.6"/>
<line y1="-0.8" x2="39.2651" y2="-0.8" transform="matrix(-0.755057 0.65566 0.755057 0.65566 358 2.25537)" stroke="#E93209" stroke-width="1.6"/>
<line y1="-0.8" x2="40.6191" y2="-0.8" transform="matrix(0.755057 -0.65566 0.755057 0.65566 268 28)" stroke="#E93209" stroke-width="1.6"/>
<line y1="-0.8" x2="40.6191" y2="-0.8" transform="matrix(0.755057 0.65566 0.755057 -0.65566 476 1)" stroke="#E93209" stroke-width="1.6"/>
<line y1="-0.8" x2="39.2651" y2="-0.8" transform="matrix(-0.755057 0.65566 0.755057 0.65566 536 2.25537)" stroke="#E93209" stroke-width="1.6"/>
<line y1="-0.8" x2="40.6191" y2="-0.8" transform="matrix(0.755057 -0.65566 0.755057 0.65566 446 28)" stroke="#E93209" stroke-width="1.6"/>
<line y1="-0.8" x2="40.6191" y2="-0.8" transform="matrix(0.755057 0.65566 0.755057 -0.65566 655 1)" stroke="#E93209" stroke-width="1.6"/>
<line y1="-0.8" x2="39.2651" y2="-0.8" transform="matrix(-0.755057 0.65566 0.755057 0.65566 715 2.25537)" stroke="#E93209" stroke-width="1.6"/>
<line y1="-0.8" x2="40.6191" y2="-0.8" transform="matrix(0.755057 -0.65566 0.755057 0.65566 625 28)" stroke="#E93209" stroke-width="1.6"/>
<line y1="-0.8" x2="40.6191" y2="-0.8" transform="matrix(0.755057 0.65566 0.755057 -0.65566 833 1)" stroke="#E93209" stroke-width="1.6"/>
<line y1="-0.8" x2="39.2651" y2="-0.8" transform="matrix(-0.755057 0.65566 0.755057 0.65566 893 2.25537)" stroke="#E93209" stroke-width="1.6"/>
<line y1="-0.8" x2="40.6191" y2="-0.8" transform="matrix(0.755057 -0.65566 0.755057 0.65566 803 28)" stroke="#E93209" stroke-width="1.6"/>
<line y1="-0.8" x2="40.6191" y2="-0.8" transform="matrix(0.755057 -0.65566 0.755057 0.65566 981 28)" stroke="#E93209" stroke-width="1.6"/>
</svg>
