<svg width="240" height="29" viewBox="0 0 240 29" fill="none" xmlns="http://www.w3.org/2000/svg">
<line y1="-0.8" x2="40.6191" y2="-0.8" transform="matrix(-0.755057 0.65566 -0.755057 -0.65566 60 1)" stroke="#E93209" stroke-width="1.6"/>
<line y1="-0.8" x2="39.2651" y2="-0.8" transform="matrix(0.755057 0.65566 -0.755057 0.65566 0 2.25537)" stroke="#E93209" stroke-width="1.6"/>
<line y1="-0.8" x2="40.6191" y2="-0.8" transform="matrix(0.755057 0.65566 0.755057 -0.65566 120 1)" stroke="#E93209" stroke-width="1.6"/>
<line y1="-0.8" x2="39.2651" y2="-0.8" transform="matrix(-0.755057 0.65566 0.755057 0.65566 180 2.25537)" stroke="#E93209" stroke-width="1.6"/>
<line y1="-0.8" x2="40.6191" y2="-0.8" transform="matrix(-0.755057 -0.65566 -0.755057 0.65566 90 28)" stroke="#E93209" stroke-width="1.6"/>
<line y1="-0.8" x2="40.6191" y2="-0.8" transform="matrix(-0.755057 0.65566 -0.755057 -0.65566 238 1)" stroke="#E93209" stroke-width="1.6"/>
<line y1="-0.8" x2="39.2651" y2="-0.8" transform="matrix(0.755057 0.65566 -0.755057 0.65566 178 2.25537)" stroke="#E93209" stroke-width="1.6"/>
<line y1="-0.8" x2="40.6191" y2="-0.8" transform="matrix(0.755057 -0.65566 0.755057 0.65566 90 28)" stroke="#E93209" stroke-width="1.6"/>
</svg>
